<svg id="Layer_1" data-name="Layer 1" xmlns="http://www.w3.org/2000/svg" viewBox="0 0 432 432"><title>Artboard 1 copy 7</title><path d="M215.66,6.34C100,6.34,6.25,100.1,6.25,215.75S100,425.16,215.66,425.16s209.41-93.75,209.41-209.41S331.31,6.34,215.66,6.34ZM334.11,277.66a8.08,8.08,0,0,1,0,11.44L289,334.21a8.09,8.09,0,0,1-11.44,0l-61.91-61.94-61.94,61.94a8.09,8.09,0,0,1-11.44,0L97.2,289.1a8.1,8.1,0,0,1,0-11.44l61.91-61.91L97.2,153.85a8.1,8.1,0,0,1,0-11.44L142.28,97.3A8.07,8.07,0,0,1,148,94.93h0a8.07,8.07,0,0,1,5.72,2.37l61.94,61.94L277.57,97.3a8.05,8.05,0,0,1,5.71-2.37h0A8.09,8.09,0,0,1,289,97.3l45.11,45.11a8.08,8.08,0,0,1,0,11.44l-62,61.9Z"/></svg>