<svg id="Layer_1" data-name="Layer 1" xmlns="http://www.w3.org/2000/svg" viewBox="0 0 432 432"><title>Artboard 1 copy 13</title><path d="M414,95.76l-87.3-84.62a18.43,18.43,0,0,0-26,.4L48.46,271.77a19.32,19.32,0,0,0-1.39,1.63,8.47,8.47,0,0,0-3.28,4.84L9.66,414A8.55,8.55,0,0,0,20.3,424.35L149.72,387.5A18.23,18.23,0,0,0,162.15,382L414.4,121.75A18.44,18.44,0,0,0,414,95.76ZM278.25,209.6,146.79,345.22a11.06,11.06,0,0,1-15.6.24L87,302.65A11.08,11.08,0,0,1,86.77,287L218.23,151.42a11.07,11.07,0,0,1,15.6-.24L278,194A11.06,11.06,0,0,1,278.25,209.6Zm87.17-88.37-39.26,40.49a11.92,11.92,0,0,1-16.8.26l-43.29-42a11.92,11.92,0,0,1-.26-16.8l39.25-40.5a11.93,11.93,0,0,1,16.81-.26l43.28,42A11.92,11.92,0,0,1,365.42,121.23Z"/></svg>