<svg id="Layer_1" data-name="Layer 1" xmlns="http://www.w3.org/2000/svg" viewBox="0 0 432 432"><title>Artboard 1 copy 18</title><path d="M177.38,34A143.6,143.6,0,0,1,278.92,279.12,143.6,143.6,0,0,1,75.85,76,142.65,142.65,0,0,1,177.38,34m0-31A174.6,174.6,0,1,0,352,177.58,174.6,174.6,0,0,0,177.38,3Z"/><path d="M301.36,276.73a20,20,0,0,0-14.15,5.84l-7.28,7.27a20.1,20.1,0,0,0,0,28.32l98.93,98.92a20.07,20.07,0,0,0,28.31,0l7.27-7.27a20.08,20.08,0,0,0,0-28.32l-98.92-98.92a20,20,0,0,0-14.16-5.84Z"/></svg>