<svg id="Layer_1" data-name="Layer 1" xmlns="http://www.w3.org/2000/svg" viewBox="0 0 432 432"><title>Artboard 1 copy 15</title><path d="M216.45,7.79C100.79,7.79,7,101.55,7,217.2s93.75,209.41,209.41,209.41S425.86,332.86,425.86,217.2,332.1,7.79,216.45,7.79ZM332,329.51a3.82,3.82,0,0,1-3.37,2H255.74a3.81,3.81,0,0,1-3.22-1.78L212,265.91,171.1,329.77a3.81,3.81,0,0,1-3.21,1.77H96.68a3.82,3.82,0,0,1-3.16-6l77-114.15L96.77,101.21A3.82,3.82,0,0,1,100,95.27h72.83A3.82,3.82,0,0,1,176,97.05l37.28,59.23L250.88,97a3.84,3.84,0,0,1,3.23-1.77h71.2a3.82,3.82,0,0,1,3.17,6L254.79,210.79l77,114.8A3.81,3.81,0,0,1,332,329.51Z"/></svg>