<svg id="Layer_1" data-name="Layer 1" xmlns="http://www.w3.org/2000/svg" viewBox="0 0 432 432"><title>Artboard 1 copy 17</title><path d="M217,7.26C101.33,7.26,7.57,101,7.57,216.67S101.33,426.08,217,426.08s209.41-93.76,209.41-209.41S332.64,7.26,217,7.26ZM317.57,145.53a4.14,4.14,0,0,1-1,2.74L211.15,266.86H313.44a4.13,4.13,0,0,1,4.13,4.13v52.09a4.12,4.12,0,0,1-4.13,4.12H116.84a4.12,4.12,0,0,1-4.13-4.12V278.29a4.14,4.14,0,0,1,1-2.74L219.13,157H120.65a4.13,4.13,0,0,1-4.13-4.13V100.74a4.13,4.13,0,0,1,4.13-4.13H313.44a4.13,4.13,0,0,1,4.13,4.13Z"/></svg>