<svg id="Layer_1" data-name="Layer 1" xmlns="http://www.w3.org/2000/svg" viewBox="0 0 432 432"><title>Artboard 1 copy 6</title><path d="M99.55,172.75h0l-.43,0,.47,0Z"/><path d="M215.21,7.3C99.56,7.3,5.8,101.06,5.8,216.71S99.56,426.13,215.21,426.13s209.41-93.76,209.41-209.42S330.87,7.3,215.21,7.3ZM348.94,147.57,181.53,314.68a17.74,17.74,0,0,1-25.13,0L131.64,289.7l-5.23-5.27-7.16-7.21-.11-.12L61.62,216.74a18.18,18.18,0,0,1-5.13-12.6,17.74,17.74,0,0,1,5.13-12.4,5.77,5.77,0,0,1,.44-.42L87.12,168.8a17.75,17.75,0,0,1,12.39-5.05h.09A17.48,17.48,0,0,1,112.1,169L169,226.93,299.07,97.43a17.7,17.7,0,0,1,25.13,0L349,122.37A17.88,17.88,0,0,1,348.94,147.57Z"/></svg>