<svg id="Layer_1" data-name="Layer 1" xmlns="http://www.w3.org/2000/svg" viewBox="0 0 432 432"><title>Artboard 1 copy 11</title><path d="M218.65,5.64C103,5.64,9.24,99.39,9.24,215.05S103,424.46,218.65,424.46,428.06,330.7,428.06,215.05,334.3,5.64,218.65,5.64ZM251,334.36c0,4-1.23,7.2-2.74,7.2H189.08c-1.51,0-2.74-3.24-2.74-7.2V292.25c0-4,1.23-7.21,2.74-7.21h59.13c1.51,0,2.74,3.24,2.74,7.21Zm54.66-84.51a7.32,7.32,0,0,1-7.39,7.21H139.08a7.33,7.33,0,0,1-7.4-7.21v-42.1a7.33,7.33,0,0,1,7.4-7.21H298.22a7.32,7.32,0,0,1,7.39,7.21Zm55-84.5c0,4-5.43,7.21-12.07,7.21H88.78c-6.63,0-12.06-3.24-12.06-7.21V123.24c0-4,5.43-7.2,12.06-7.2H348.51c6.64,0,12.07,3.24,12.07,7.2Z"/><path d="M102.94,171.08l-.43,0,.47,0h0Z"/></svg>