<?xml version="1.0" encoding="UTF-8"?>
<svg width="22px" height="22px" viewBox="0 0 22 22" version="1.1" xmlns="http://www.w3.org/2000/svg" xmlns:xlink="http://www.w3.org/1999/xlink">
    <title>F78E3133-5F75-41AF-A5E0-16F5E3CE05AD</title>
    <g id="legend/trial" stroke="none" stroke-width="1" fill="none" fill-rule="evenodd">
        <g transform="translate(-564.000000, -425.000000)" fill="#FF3A63" fill-rule="nonzero" id="icon-help-pink">
            <g transform="translate(564.000000, 425.000000)" id="icon-help-gray">
                <path d="M11,0 C4.92529435,0 0,4.92706855 0,11 C0,17.0764798 4.92529435,22 11,22 C17.0747056,22 22,17.0764798 22,11 C22,4.92706855 17.0747056,0 11,0 Z M11,19.8709677 C6.09737097,19.8709677 2.12903226,15.9042702 2.12903226,11 C2.12903226,6.0990121 6.09754839,2.12903226 11,2.12903226 C15.9008105,2.12903226 19.8709677,6.09750403 19.8709677,11 C19.8709677,15.9025403 15.9042702,19.8709677 11,19.8709677 Z M15.7567903,8.5516129 C15.7567903,11.5256935 12.5445685,11.5714677 12.5445685,12.6705363 L12.5445685,12.9516129 C12.5445685,13.2455524 12.30625,13.483871 12.0123105,13.483871 L9.98764516,13.483871 C9.69370565,13.483871 9.4553871,13.2455524 9.4553871,12.9516129 L9.4553871,12.5675444 C9.4553871,10.9820806 10.6574032,10.3482944 11.565746,9.8390121 C12.3446613,9.40233871 12.8220524,9.10533871 12.8220524,8.52704032 C12.8220524,7.76209677 11.8462903,7.25436694 11.0574395,7.25436694 C10.0288952,7.25436694 9.55407661,7.74125 8.886625,8.5836371 C8.70667742,8.81073387 8.37831855,8.85291532 8.14740726,8.67784677 L6.91327823,7.74204839 C6.68675806,7.57030645 6.63601613,7.25121774 6.79600403,7.01627016 C7.84397581,5.47742339 9.17879032,4.61290323 11.2569919,4.61290323 C13.4335282,4.61290323 15.7567903,6.31187097 15.7567903,8.5516129 L15.7567903,8.5516129 Z M12.8629032,15.9677419 C12.8629032,16.9949556 12.0272137,17.8306452 11,17.8306452 C9.97278629,17.8306452 9.13709677,16.9949556 9.13709677,15.9677419 C9.13709677,14.9405282 9.97278629,14.1048387 11,14.1048387 C12.0272137,14.1048387 12.8629032,14.9405282 12.8629032,15.9677419 Z" id="icon-help"></path>
            </g>
        </g>
    </g>
</svg>